<svg width="22" height="22" viewBox="0 0 22 22" fill="none" xmlns="http://www.w3.org/2000/svg">
<g clip-path="url(#clip0_2950_6260)">
<path fill-rule="evenodd" clip-rule="evenodd" d="M15.125 11.6875H11.6875V15.125C11.6875 15.5031 11.3802 15.8125 11 15.8125C10.6198 15.8125 10.3125 15.5031 10.3125 15.125V11.6875H6.875C6.49481 11.6875 6.1875 11.3781 6.1875 11C6.1875 10.6219 6.49481 10.3125 6.875 10.3125H10.3125V6.875C10.3125 6.49687 10.6198 6.1875 11 6.1875C11.3802 6.1875 11.6875 6.49687 11.6875 6.875V10.3125H15.125C15.5052 10.3125 15.8125 10.6219 15.8125 11C15.8125 11.3781 15.5052 11.6875 15.125 11.6875ZM11 0C4.92456 0 0 4.9225 0 11C0 17.0775 4.92456 22 11 22C17.0754 22 22 17.0775 22 11C22 4.9225 17.0754 0 11 0Z" fill="black"/>
</g>
<defs>
<clipPath id="clip0_2950_6260">
<rect width="22" height="22" fill="white"/>
</clipPath>
</defs>
</svg>
