<svg width="26" height="26" viewBox="0 0 26 26" fill="none" xmlns="http://www.w3.org/2000/svg">
<g clip-path="url(#clip0_2924_9920)">
<path d="M19.8404 6.15625H6.15625V19.8404H19.8404V6.15625Z" fill="white"/>
<path d="M19.8432 26.0035L26.0011 19.8456L22.9222 19.3203L19.8432 19.8456L19.2812 22.6619L19.8432 26.0035Z" fill="#EA4335"/>
<path d="M0 19.8456V23.9509C0 25.085 0.918531 26.0035 2.05258 26.0035H6.15794L6.79016 22.9246L6.15794 19.8456L2.80302 19.3203L0 19.8456Z" fill="#188038"/>
<path d="M26.0011 6.15794V2.05258C26.0011 0.918531 25.0826 0 23.9486 0H19.8432C19.4686 1.52709 19.2813 2.65092 19.2812 3.37147C19.2812 4.09195 19.4686 5.02078 19.8432 6.15794C21.2051 6.54794 22.2315 6.74294 22.9222 6.74294C23.6129 6.74294 24.6392 6.54801 26.0011 6.15794Z" fill="#1967D2"/>
<path d="M26.0017 6.15625H19.8438V19.8404H26.0017V6.15625Z" fill="#FBBC04"/>
<path d="M19.8404 19.8438H6.15625V26.0017H19.8404V19.8438Z" fill="#34A853"/>
<path d="M19.8421 0H2.05268C0.918531 0 0 0.918531 0 2.05258V19.8421H6.15794V6.15794H19.8421V0Z" fill="#4285F4"/>
<path d="M8.96514 16.7712C8.45367 16.4257 8.09952 15.9211 7.90625 15.2539L9.09341 14.7647C9.20107 15.1752 9.38923 15.4934 9.6579 15.7192C9.9247 15.945 10.2497 16.0562 10.6294 16.0562C11.0177 16.0562 11.3512 15.9381 11.63 15.702C11.9089 15.466 12.0492 15.165 12.0492 14.8007C12.0492 14.4277 11.9021 14.1233 11.6079 13.8872C11.3137 13.6512 10.9442 13.5332 10.5029 13.5332H9.81694V12.3581H10.4327C10.8124 12.3581 11.1323 12.2554 11.3923 12.0501C11.6523 11.8449 11.7823 11.5643 11.7823 11.2068C11.7823 10.8887 11.666 10.6355 11.4334 10.4457C11.2008 10.2558 10.9065 10.16 10.549 10.16C10.2 10.16 9.92298 10.2524 9.71772 10.4388C9.51252 10.6257 9.35828 10.8617 9.26952 11.1247L8.09444 10.6355C8.25004 10.1942 8.53573 9.80421 8.95478 9.46723C9.37383 9.13024 9.90927 8.96094 10.5593 8.96094C11.04 8.96094 11.4727 9.05336 11.8559 9.23973C12.239 9.4262 12.54 9.68447 12.7573 10.0129C12.9746 10.343 13.0823 10.7125 13.0823 11.123C13.0823 11.542 12.9814 11.8962 12.7796 12.187C12.5778 12.4777 12.3297 12.7001 12.0355 12.8558V12.9258C12.4154 13.0825 12.7454 13.3398 12.99 13.67C13.238 14.0035 13.3629 14.402 13.3629 14.8674C13.3629 15.3326 13.2448 15.7483 13.0087 16.1126C12.7727 16.477 12.4461 16.7643 12.032 16.973C11.6164 17.1817 11.1494 17.2878 10.6312 17.2878C10.0307 17.2895 9.47661 17.1167 8.96514 16.7712ZM16.2569 10.8801L14.9536 11.8226L14.3018 10.834L16.6401 9.1473H17.5364V17.103H16.2569V10.8801Z" fill="#4285F4"/>
</g>
<defs>
<clipPath id="clip0_2924_9920">
<rect width="26" height="26" fill="white"/>
</clipPath>
</defs>
</svg>
