<svg width="24" height="22" viewBox="0 0 24 22" fill="none" xmlns="http://www.w3.org/2000/svg">
<rect x="6.5" y="3" width="4" height="4" rx="1" transform="rotate(90 6.5 3)" fill="white"/>
<rect x="11.5" y="3" width="4" height="4" rx="1" transform="rotate(90 11.5 3)" fill="white"/>
<rect x="16.5" y="3" width="4" height="4" rx="1" transform="rotate(90 16.5 3)" fill="white"/>
<rect x="21.5" y="3" width="4" height="4" rx="1" transform="rotate(90 21.5 3)" fill="white"/>
<rect x="6.5" y="9" width="4" height="4" rx="1" transform="rotate(90 6.5 9)" fill="white"/>
<rect x="11.5" y="9" width="4" height="4" rx="1" transform="rotate(90 11.5 9)" fill="white"/>
<rect x="16.5" y="9" width="4" height="4" rx="1" transform="rotate(90 16.5 9)" fill="white"/>
<rect x="21.5" y="9" width="4" height="4" rx="1" transform="rotate(90 21.5 9)" fill="white"/>
<rect x="6.5" y="15" width="4" height="4" rx="1" transform="rotate(90 6.5 15)" fill="white"/>
<rect x="11.5" y="15" width="4" height="4" rx="1" transform="rotate(90 11.5 15)" fill="white"/>
<rect x="16.5" y="15" width="4" height="4" rx="1" transform="rotate(90 16.5 15)" fill="white"/>
<rect x="21.5" y="15" width="4" height="4" rx="1" transform="rotate(90 21.5 15)" fill="white"/>
</svg>
